<svg xmlns="http://www.w3.org/2000/svg" xmlns:xlink="http://www.w3.org/1999/xlink" width="212" zoomAndPan="magnify" viewBox="0 0 159 69.749997" height="93" preserveAspectRatio="xMidYMid meet" version="1.0"><defs><g/><clipPath id="f6b16bd592"><path d="M 39.625 35.96875 L 49.679688 35.96875 L 49.679688 53.886719 L 39.625 53.886719 Z M 39.625 35.96875 " clip-rule="nonzero"/></clipPath><clipPath id="707cc3508a"><path d="M 134.464844 14.441406 L 150.261719 14.441406 L 150.261719 32.363281 L 134.464844 32.363281 Z M 134.464844 14.441406 " clip-rule="nonzero"/></clipPath><clipPath id="ba698f86f7"><path d="M 45.410156 35.96875 L 56.863281 35.96875 L 56.863281 52.390625 L 45.410156 52.390625 Z M 45.410156 35.96875 " clip-rule="nonzero"/></clipPath><clipPath id="7529acb7f5"><path d="M 49.660156 35.96875 L 56.863281 35.96875 L 52.613281 52.375 L 45.410156 52.375 Z M 49.660156 35.96875 " clip-rule="nonzero"/></clipPath><clipPath id="881e1251a5"><path d="M 144.761719 15.957031 L 157.355469 15.957031 L 157.355469 32.386719 L 144.761719 32.386719 Z M 144.761719 15.957031 " clip-rule="nonzero"/></clipPath><clipPath id="17b71a1098"><path d="M 149.015625 15.957031 L 157.355469 15.957031 L 153.101562 32.363281 L 144.761719 32.363281 Z M 149.015625 15.957031 " clip-rule="nonzero"/></clipPath></defs><g fill="#ffffff" fill-opacity="1"><g transform="translate(-1.399646, 50.514322)"><g><path d="M 18.828125 0.859375 C 15.628906 0.859375 12.796875 0.132812 10.328125 -1.3125 C 7.867188 -2.769531 5.929688 -4.78125 4.515625 -7.34375 C 3.109375 -9.914062 2.40625 -12.863281 2.40625 -16.1875 C 2.40625 -19.507812 3.109375 -22.441406 4.515625 -24.984375 C 5.929688 -27.523438 7.867188 -29.523438 10.328125 -30.984375 C 12.796875 -32.441406 15.628906 -33.171875 18.828125 -33.171875 C 20.835938 -33.171875 22.703125 -32.867188 24.421875 -32.265625 C 26.148438 -31.671875 27.710938 -30.84375 29.109375 -29.78125 L 29.109375 -45.53125 L 38.453125 -45.53125 L 38.453125 0 L 31.5 0 L 30.390625 -3.6875 C 28.960938 -2.25 27.257812 -1.128906 25.28125 -0.328125 C 23.3125 0.460938 21.160156 0.859375 18.828125 0.859375 Z M 11.625 -16.1875 C 11.625 -13.5625 12.453125 -11.40625 14.109375 -9.71875 C 15.773438 -8.039062 17.921875 -7.203125 20.546875 -7.203125 C 23.171875 -7.203125 25.300781 -8.039062 26.9375 -9.71875 C 28.582031 -11.40625 29.40625 -13.5625 29.40625 -16.1875 C 29.40625 -18.8125 28.582031 -20.960938 26.9375 -22.640625 C 25.300781 -24.328125 23.171875 -25.171875 20.546875 -25.171875 C 17.921875 -25.171875 15.773438 -24.328125 14.109375 -22.640625 C 12.453125 -20.960938 11.625 -18.8125 11.625 -16.1875 Z M 11.625 -16.1875 "/></g></g></g><g fill="#ffffff" fill-opacity="1"><g transform="translate(35.637, 50.514322)"><g><path d="M 4.671875 0 L 4.671875 -32.296875 L 11.625 -32.296875 L 12.859375 -28 C 13.921875 -29.507812 15.234375 -30.601562 16.796875 -31.28125 C 18.359375 -31.957031 20.328125 -32.296875 22.703125 -32.296875 L 26.21875 -32.296875 L 26.21875 -23.8125 L 22.640625 -23.8125 C 19.972656 -23.8125 17.867188 -23.09375 16.328125 -21.65625 C 14.796875 -20.21875 14.03125 -17.757812 14.03125 -14.28125 L 14.03125 0 Z M 4.671875 0 "/></g></g></g><g fill="#ffffff" fill-opacity="1"><g transform="translate(57.847077, 50.514322)"><g/></g></g><g fill="#ffffff" fill-opacity="1"><g transform="translate(93.274015, 50.514322)"><g><path d="M 12.484375 0 L 0.546875 -32.296875 L 10.453125 -32.296875 L 14.21875 -21.59375 L 17.40625 -12.546875 L 20.734375 -21.59375 L 24.734375 -32.296875 L 32.296875 -32.296875 L 36.296875 -21.59375 L 39.625 -12.484375 L 42.828125 -21.59375 L 46.640625 -32.296875 L 56.484375 -32.296875 L 44.546875 0 L 35.875 0 L 28.546875 -19.6875 L 21.171875 0 Z M 12.484375 0 "/></g></g></g><g clip-path="url(#f6b16bd592)"><path fill="#ada6a6" d="M 39.625 35.96875 L 49.679688 35.96875 L 49.679688 53.875 L 39.625 53.875 Z M 39.625 35.96875 " fill-opacity="1" fill-rule="nonzero"/></g><g clip-path="url(#707cc3508a)"><path fill="#ada6a6" d="M 134.464844 14.441406 L 150.261719 14.441406 L 150.261719 32.339844 L 134.464844 32.339844 Z M 134.464844 14.441406 " fill-opacity="1" fill-rule="nonzero"/></g><g clip-path="url(#ba698f86f7)"><g clip-path="url(#7529acb7f5)"><path fill="#4b58ff" d="M 45.410156 35.96875 L 56.863281 35.96875 L 56.863281 52.390625 L 45.410156 52.390625 Z M 45.410156 35.96875 " fill-opacity="1" fill-rule="nonzero"/></g></g><g clip-path="url(#881e1251a5)"><g clip-path="url(#17b71a1098)"><path fill="#4b58ff" d="M 144.761719 15.957031 L 157.355469 15.957031 L 157.355469 32.386719 L 144.761719 32.386719 Z M 144.761719 15.957031 " fill-opacity="1" fill-rule="nonzero"/></g></g><g fill="#ffffff" fill-opacity="1"><g transform="translate(67.77567, 56.646079)"><g><path d="M 18.6875 -6.96875 C 15.519531 -5.625 12.4375 -5.097656 9.4375 -5.390625 C 6.445312 -5.691406 3.773438 -6.734375 1.421875 -8.515625 C -0.929688 -10.304688 -2.765625 -12.75 -4.078125 -15.84375 C -5.390625 -18.945312 -5.851562 -21.957031 -5.46875 -24.875 C -5.082031 -27.800781 -3.945312 -30.441406 -2.0625 -32.796875 C -0.1875 -35.148438 2.359375 -37.007812 5.578125 -38.375 C 8.972656 -39.800781 12.222656 -40.28125 15.328125 -39.8125 C 18.441406 -39.34375 21.226562 -38.019531 23.6875 -35.84375 C 26.144531 -33.675781 28.046875 -30.738281 29.390625 -27.03125 L 5.53125 -16.953125 C 6.8125 -15.097656 8.378906 -13.921875 10.234375 -13.421875 C 12.085938 -12.929688 13.992188 -13.101562 15.953125 -13.9375 C 17.390625 -14.539062 18.582031 -15.367188 19.53125 -16.421875 C 20.488281 -17.484375 21.117188 -18.65625 21.421875 -19.9375 L 30.15625 -23.625 C 30.195312 -19.945312 29.210938 -16.632812 27.203125 -13.6875 C 25.191406 -10.75 22.351562 -8.507812 18.6875 -6.96875 Z M 3.28125 -22.421875 L 18.75 -28.953125 C 17.5 -30.554688 15.976562 -31.59375 14.1875 -32.0625 C 12.40625 -32.539062 10.515625 -32.359375 8.515625 -31.515625 C 6.628906 -30.722656 5.21875 -29.507812 4.28125 -27.875 C 3.34375 -26.25 3.007812 -24.429688 3.28125 -22.421875 Z M 3.28125 -22.421875 "/></g></g></g><g fill="#4b58ff" fill-opacity="1"><g transform="translate(16.125564, 67.592387)"><g><path d="M 4.75 -3.53125 L 4.125 -3.53125 C 4.070312 -3.757812 3.972656 -3.953125 3.828125 -4.109375 C 3.691406 -4.273438 3.519531 -4.398438 3.3125 -4.484375 C 3.113281 -4.566406 2.90625 -4.609375 2.6875 -4.609375 C 2.375 -4.609375 2.09375 -4.53125 1.84375 -4.375 C 1.59375 -4.21875 1.390625 -3.988281 1.234375 -3.6875 C 1.085938 -3.382812 1.015625 -3.007812 1.015625 -2.5625 C 1.015625 -2.113281 1.085938 -1.738281 1.234375 -1.4375 C 1.390625 -1.132812 1.59375 -0.90625 1.84375 -0.75 C 2.09375 -0.59375 2.375 -0.515625 2.6875 -0.515625 C 2.90625 -0.515625 3.113281 -0.554688 3.3125 -0.640625 C 3.519531 -0.722656 3.691406 -0.84375 3.828125 -1 C 3.972656 -1.164062 4.070312 -1.367188 4.125 -1.609375 L 4.75 -1.609375 C 4.6875 -1.253906 4.554688 -0.953125 4.359375 -0.703125 C 4.160156 -0.453125 3.914062 -0.257812 3.625 -0.125 C 3.34375 0 3.03125 0.0625 2.6875 0.0625 C 2.25 0.0625 1.859375 -0.0390625 1.515625 -0.25 C 1.171875 -0.46875 0.898438 -0.769531 0.703125 -1.15625 C 0.515625 -1.550781 0.421875 -2.019531 0.421875 -2.5625 C 0.421875 -3.101562 0.515625 -3.566406 0.703125 -3.953125 C 0.898438 -4.347656 1.171875 -4.648438 1.515625 -4.859375 C 1.859375 -5.078125 2.25 -5.1875 2.6875 -5.1875 C 3.03125 -5.1875 3.34375 -5.117188 3.625 -4.984375 C 3.914062 -4.859375 4.160156 -4.671875 4.359375 -4.421875 C 4.554688 -4.171875 4.6875 -3.875 4.75 -3.53125 Z M 4.75 -3.53125 "/></g></g></g><g fill="#4b58ff" fill-opacity="1"><g transform="translate(25.840271, 67.592387)"><g><path d="M 0.625 0 L 0.625 -5.125 L 2.359375 -5.125 C 2.753906 -5.125 3.078125 -5.054688 3.328125 -4.921875 C 3.585938 -4.785156 3.78125 -4.597656 3.90625 -4.359375 C 4.03125 -4.117188 4.09375 -3.847656 4.09375 -3.546875 C 4.09375 -3.210938 4.015625 -2.914062 3.859375 -2.65625 C 3.703125 -2.40625 3.460938 -2.222656 3.140625 -2.109375 L 4.296875 0 L 3.578125 0 L 2.5 -2 C 2.457031 -2 2.410156 -2 2.359375 -2 L 1.234375 -2 L 1.234375 0 Z M 1.234375 -2.5625 L 2.34375 -2.5625 C 2.75 -2.5625 3.039062 -2.648438 3.21875 -2.828125 C 3.394531 -3.003906 3.484375 -3.242188 3.484375 -3.546875 C 3.484375 -3.859375 3.394531 -4.109375 3.21875 -4.296875 C 3.039062 -4.484375 2.742188 -4.578125 2.328125 -4.578125 L 1.234375 -4.578125 Z M 1.234375 -2.5625 "/></g></g></g><g fill="#4b58ff" fill-opacity="1"><g transform="translate(34.934239, 67.592387)"><g><path d="M 0.625 0 L 0.625 -5.125 L 3.71875 -5.125 L 3.71875 -4.578125 L 1.234375 -4.578125 L 1.234375 -2.84375 L 3.546875 -2.84375 L 3.546875 -2.296875 L 1.234375 -2.296875 L 1.234375 -0.546875 L 3.75 -0.546875 L 3.75 0 Z M 0.625 0 "/></g></g></g><g fill="#4b58ff" fill-opacity="1"><g transform="translate(43.737861, 67.592387)"><g><path d="M 0.828125 0 L 0.1875 0 L 2.0625 -5.125 L 2.703125 -5.125 L 4.578125 0 L 3.9375 0 L 3.421875 -1.453125 L 1.34375 -1.453125 Z M 1.546875 -2 L 3.21875 -2 L 2.40625 -4.3125 L 2.359375 -4.3125 Z M 1.546875 -2 "/></g></g></g><g fill="#4b58ff" fill-opacity="1"><g transform="translate(53.092142, 67.592387)"><g><path d="M 0.34375 -4.578125 L 0.34375 -5.125 L 4.1875 -5.125 L 4.1875 -4.578125 L 2.578125 -4.578125 L 2.578125 0 L 1.953125 0 L 1.953125 -4.578125 Z M 0.34375 -4.578125 "/></g></g></g><g fill="#4b58ff" fill-opacity="1"><g transform="translate(62.206131, 67.592387)"><g><path d="M 1.234375 -5.125 L 1.234375 0 L 0.625 0 L 0.625 -5.125 Z M 1.234375 -5.125 "/></g></g></g><g fill="#4b58ff" fill-opacity="1"><g transform="translate(68.656959, 67.592387)"><g><path d="M 0.828125 -5.125 L 2.359375 -0.8125 L 2.40625 -0.8125 L 3.9375 -5.125 L 4.578125 -5.125 L 2.703125 0 L 2.0625 0 L 0.1875 -5.125 Z M 0.828125 -5.125 "/></g></g></g><g fill="#4b58ff" fill-opacity="1"><g transform="translate(78.011238, 67.592387)"><g><path d="M 0.625 0 L 0.625 -5.125 L 3.71875 -5.125 L 3.71875 -4.578125 L 1.234375 -4.578125 L 1.234375 -2.84375 L 3.546875 -2.84375 L 3.546875 -2.296875 L 1.234375 -2.296875 L 1.234375 -0.546875 L 3.75 -0.546875 L 3.75 0 Z M 0.625 0 "/></g></g></g><g fill="#4b58ff" fill-opacity="1"><g transform="translate(86.814857, 67.592387)"><g/></g></g><g fill="#4b58ff" fill-opacity="1"><g transform="translate(93.385821, 67.592387)"><g><path d="M 3.421875 -3.84375 C 3.390625 -4.09375 3.265625 -4.285156 3.046875 -4.421875 C 2.835938 -4.566406 2.578125 -4.640625 2.265625 -4.640625 C 1.929688 -4.640625 1.660156 -4.554688 1.453125 -4.390625 C 1.242188 -4.234375 1.140625 -4.035156 1.140625 -3.796875 C 1.140625 -3.609375 1.195312 -3.457031 1.3125 -3.34375 C 1.425781 -3.238281 1.554688 -3.15625 1.703125 -3.09375 C 1.859375 -3.03125 2 -2.976562 2.125 -2.9375 L 2.65625 -2.796875 C 2.789062 -2.765625 2.9375 -2.71875 3.09375 -2.65625 C 3.257812 -2.59375 3.414062 -2.507812 3.5625 -2.40625 C 3.71875 -2.300781 3.84375 -2.164062 3.9375 -2 C 4.039062 -1.832031 4.09375 -1.628906 4.09375 -1.390625 C 4.09375 -1.109375 4.019531 -0.859375 3.875 -0.640625 C 3.726562 -0.421875 3.515625 -0.242188 3.234375 -0.109375 C 2.960938 0.0234375 2.632812 0.09375 2.25 0.09375 C 1.695312 0.09375 1.257812 -0.0351562 0.9375 -0.296875 C 0.613281 -0.554688 0.4375 -0.898438 0.40625 -1.328125 L 1.046875 -1.328125 C 1.054688 -1.128906 1.117188 -0.96875 1.234375 -0.84375 C 1.347656 -0.71875 1.492188 -0.625 1.671875 -0.5625 C 1.847656 -0.5 2.039062 -0.46875 2.25 -0.46875 C 2.476562 -0.46875 2.6875 -0.503906 2.875 -0.578125 C 3.0625 -0.660156 3.210938 -0.769531 3.328125 -0.90625 C 3.441406 -1.050781 3.5 -1.21875 3.5 -1.40625 C 3.5 -1.570312 3.445312 -1.707031 3.34375 -1.8125 C 3.25 -1.925781 3.125 -2.015625 2.96875 -2.078125 C 2.820312 -2.140625 2.65625 -2.195312 2.46875 -2.25 L 1.84375 -2.4375 C 1.4375 -2.550781 1.117188 -2.710938 0.890625 -2.921875 C 0.660156 -3.140625 0.546875 -3.421875 0.546875 -3.765625 C 0.546875 -4.046875 0.625 -4.296875 0.78125 -4.515625 C 0.9375 -4.734375 1.144531 -4.898438 1.40625 -5.015625 C 1.664062 -5.128906 1.960938 -5.1875 2.296875 -5.1875 C 2.617188 -5.1875 2.910156 -5.128906 3.171875 -5.015625 C 3.429688 -4.898438 3.632812 -4.738281 3.78125 -4.53125 C 3.9375 -4.332031 4.019531 -4.101562 4.03125 -3.84375 Z M 3.421875 -3.84375 "/></g></g></g><g fill="#4b58ff" fill-opacity="1"><g transform="translate(102.469776, 67.592387)"><g><path d="M 0.34375 -4.578125 L 0.34375 -5.125 L 4.1875 -5.125 L 4.1875 -4.578125 L 2.578125 -4.578125 L 2.578125 0 L 1.953125 0 L 1.953125 -4.578125 Z M 0.34375 -4.578125 "/></g></g></g><g fill="#4b58ff" fill-opacity="1"><g transform="translate(111.583764, 67.592387)"><g><path d="M 3.984375 -5.125 L 4.609375 -5.125 L 4.609375 -1.734375 C 4.609375 -1.347656 4.515625 -1.019531 4.328125 -0.75 C 4.148438 -0.476562 3.910156 -0.269531 3.609375 -0.125 C 3.304688 0.0195312 2.972656 0.09375 2.609375 0.09375 C 2.253906 0.09375 1.925781 0.0195312 1.625 -0.125 C 1.320312 -0.269531 1.078125 -0.476562 0.890625 -0.75 C 0.710938 -1.019531 0.625 -1.347656 0.625 -1.734375 L 0.625 -5.125 L 1.234375 -5.125 L 1.234375 -1.734375 C 1.234375 -1.460938 1.296875 -1.234375 1.421875 -1.046875 C 1.554688 -0.867188 1.726562 -0.726562 1.9375 -0.625 C 2.144531 -0.53125 2.367188 -0.484375 2.609375 -0.484375 C 2.859375 -0.484375 3.085938 -0.53125 3.296875 -0.625 C 3.503906 -0.726562 3.671875 -0.867188 3.796875 -1.046875 C 3.921875 -1.234375 3.984375 -1.460938 3.984375 -1.734375 Z M 3.984375 -5.125 "/></g></g></g><g fill="#4b58ff" fill-opacity="1"><g transform="translate(121.398592, 67.592387)"><g><path d="M 2.203125 0 L 0.625 0 L 0.625 -5.125 L 2.265625 -5.125 C 2.765625 -5.125 3.191406 -5.019531 3.546875 -4.8125 C 3.898438 -4.613281 4.171875 -4.320312 4.359375 -3.9375 C 4.546875 -3.5625 4.640625 -3.109375 4.640625 -2.578125 C 4.640625 -2.035156 4.546875 -1.570312 4.359375 -1.1875 C 4.171875 -0.8125 3.894531 -0.519531 3.53125 -0.3125 C 3.164062 -0.101562 2.722656 0 2.203125 0 Z M 1.234375 -0.546875 L 2.15625 -0.546875 C 2.789062 -0.546875 3.265625 -0.726562 3.578125 -1.09375 C 3.890625 -1.457031 4.046875 -1.953125 4.046875 -2.578125 C 4.046875 -3.191406 3.894531 -3.675781 3.59375 -4.03125 C 3.289062 -4.394531 2.835938 -4.578125 2.234375 -4.578125 L 1.234375 -4.578125 Z M 1.234375 -0.546875 "/></g></g></g><g fill="#4b58ff" fill-opacity="1"><g transform="translate(131.053229, 67.592387)"><g><path d="M 1.234375 -5.125 L 1.234375 0 L 0.625 0 L 0.625 -5.125 Z M 1.234375 -5.125 "/></g></g></g><g fill="#4b58ff" fill-opacity="1"><g transform="translate(137.504057, 67.592387)"><g><path d="M 4.9375 -2.5625 C 4.9375 -2.019531 4.835938 -1.550781 4.640625 -1.15625 C 4.453125 -0.769531 4.1875 -0.46875 3.84375 -0.25 C 3.507812 -0.0390625 3.125 0.0625 2.6875 0.0625 C 2.25 0.0625 1.859375 -0.0390625 1.515625 -0.25 C 1.171875 -0.46875 0.898438 -0.769531 0.703125 -1.15625 C 0.515625 -1.550781 0.421875 -2.019531 0.421875 -2.5625 C 0.421875 -3.101562 0.515625 -3.566406 0.703125 -3.953125 C 0.898438 -4.347656 1.171875 -4.648438 1.515625 -4.859375 C 1.859375 -5.078125 2.25 -5.1875 2.6875 -5.1875 C 3.125 -5.1875 3.507812 -5.078125 3.84375 -4.859375 C 4.1875 -4.648438 4.453125 -4.347656 4.640625 -3.953125 C 4.835938 -3.566406 4.9375 -3.101562 4.9375 -2.5625 Z M 4.34375 -2.5625 C 4.34375 -3.007812 4.269531 -3.382812 4.125 -3.6875 C 3.976562 -3.988281 3.773438 -4.21875 3.515625 -4.375 C 3.265625 -4.53125 2.988281 -4.609375 2.6875 -4.609375 C 2.375 -4.609375 2.09375 -4.53125 1.84375 -4.375 C 1.59375 -4.21875 1.390625 -3.988281 1.234375 -3.6875 C 1.085938 -3.382812 1.015625 -3.007812 1.015625 -2.5625 C 1.015625 -2.113281 1.085938 -1.738281 1.234375 -1.4375 C 1.390625 -1.132812 1.59375 -0.90625 1.84375 -0.75 C 2.09375 -0.59375 2.375 -0.515625 2.6875 -0.515625 C 2.988281 -0.515625 3.265625 -0.59375 3.515625 -0.75 C 3.773438 -0.90625 3.976562 -1.132812 4.125 -1.4375 C 4.269531 -1.738281 4.34375 -2.113281 4.34375 -2.5625 Z M 4.34375 -2.5625 "/></g></g></g></svg>