<svg xmlns="http://www.w3.org/2000/svg" xmlns:xlink="http://www.w3.org/1999/xlink" width="212" zoomAndPan="magnify" viewBox="0 0 159 69.749997" height="93" preserveAspectRatio="xMidYMid meet" version="1.0"><defs><g/><clipPath id="24a74e9971"><path d="M 0.285156 4 L 38 4 L 38 52 L 0.285156 52 Z M 0.285156 4 " clip-rule="nonzero"/></clipPath><clipPath id="fb25dec26a"><path d="M 39.613281 35.976562 L 49.671875 35.976562 L 49.671875 53.90625 L 39.613281 53.90625 Z M 39.613281 35.976562 " clip-rule="nonzero"/></clipPath><clipPath id="b71c6de845"><path d="M 134.484375 14.445312 L 150.289062 14.445312 L 150.289062 32.375 L 134.484375 32.375 Z M 134.484375 14.445312 " clip-rule="nonzero"/></clipPath><clipPath id="04063bfbf6"><path d="M 45.398438 35.976562 L 56.855469 35.976562 L 56.855469 52.40625 L 45.398438 52.40625 Z M 45.398438 35.976562 " clip-rule="nonzero"/></clipPath><clipPath id="424ffd79b5"><path d="M 49.652344 35.976562 L 56.855469 35.976562 L 52.601562 52.390625 L 45.398438 52.390625 Z M 49.652344 35.976562 " clip-rule="nonzero"/></clipPath><clipPath id="4a2f64c3ec"><path d="M 144.785156 15.960938 L 157.382812 15.960938 L 157.382812 32.394531 L 144.785156 32.394531 Z M 144.785156 15.960938 " clip-rule="nonzero"/></clipPath><clipPath id="8134651625"><path d="M 149.039062 15.960938 L 157.382812 15.960938 L 153.128906 32.375 L 144.785156 32.375 Z M 149.039062 15.960938 " clip-rule="nonzero"/></clipPath></defs><g clip-path="url(#24a74e9971)"><g fill="#1e1c1c" fill-opacity="1"><g transform="translate(-1.428126, 50.52998)"><g><path d="M 18.828125 0.859375 C 15.628906 0.859375 12.796875 0.128906 10.328125 -1.328125 C 7.867188 -2.785156 5.929688 -4.796875 4.515625 -7.359375 C 3.109375 -9.921875 2.40625 -12.863281 2.40625 -16.1875 C 2.40625 -19.507812 3.109375 -22.441406 4.515625 -24.984375 C 5.929688 -27.523438 7.867188 -29.523438 10.328125 -30.984375 C 12.796875 -32.441406 15.628906 -33.171875 18.828125 -33.171875 C 20.835938 -33.171875 22.703125 -32.875 24.421875 -32.28125 C 26.148438 -31.6875 27.710938 -30.851562 29.109375 -29.78125 L 29.109375 -45.546875 L 38.46875 -45.546875 L 38.46875 0 L 31.515625 0 L 30.40625 -3.6875 C 28.96875 -2.25 27.265625 -1.128906 25.296875 -0.328125 C 23.328125 0.460938 21.171875 0.859375 18.828125 0.859375 Z M 11.625 -16.1875 C 11.625 -13.5625 12.457031 -11.40625 14.125 -9.71875 C 15.789062 -8.039062 17.9375 -7.203125 20.5625 -7.203125 C 23.1875 -7.203125 25.316406 -8.039062 26.953125 -9.71875 C 28.597656 -11.40625 29.421875 -13.5625 29.421875 -16.1875 C 29.421875 -18.8125 28.597656 -20.960938 26.953125 -22.640625 C 25.316406 -24.328125 23.1875 -25.171875 20.5625 -25.171875 C 17.9375 -25.171875 15.789062 -24.328125 14.125 -22.640625 C 12.457031 -20.960938 11.625 -18.8125 11.625 -16.1875 Z M 11.625 -16.1875 "/></g></g></g></g><g fill="#1e1c1c" fill-opacity="1"><g transform="translate(35.621559, 50.52998)"><g><path d="M 4.671875 0 L 4.671875 -32.3125 L 11.625 -32.3125 L 12.859375 -28 C 13.929688 -29.519531 15.242188 -30.617188 16.796875 -31.296875 C 18.359375 -31.972656 20.328125 -32.3125 22.703125 -32.3125 L 26.21875 -32.3125 L 26.21875 -23.8125 L 22.65625 -23.8125 C 19.988281 -23.8125 17.882812 -23.09375 16.34375 -21.65625 C 14.800781 -20.226562 14.03125 -17.769531 14.03125 -14.28125 L 14.03125 0 Z M 4.671875 0 "/></g></g></g><g fill="#1e1c1c" fill-opacity="1"><g transform="translate(57.839456, 50.52998)"><g/></g></g><g fill="#1e1c1c" fill-opacity="1"><g transform="translate(93.278864, 50.52998)"><g><path d="M 12.5 0 L 0.546875 -32.3125 L 10.46875 -32.3125 L 14.21875 -21.609375 L 17.421875 -12.5625 L 20.734375 -21.609375 L 24.734375 -32.3125 L 32.3125 -32.3125 L 36.3125 -21.609375 L 39.640625 -12.5 L 42.84375 -21.609375 L 46.65625 -32.3125 L 56.5 -32.3125 L 44.5625 0 L 35.875 0 L 28.5625 -19.6875 L 21.171875 0 Z M 12.5 0 "/></g></g></g><g clip-path="url(#fb25dec26a)"><path fill="#f1eded" d="M 39.613281 35.976562 L 49.671875 35.976562 L 49.671875 53.890625 L 39.613281 53.890625 Z M 39.613281 35.976562 " fill-opacity="1" fill-rule="nonzero"/></g><g clip-path="url(#b71c6de845)"><path fill="#f1eded" d="M 134.484375 14.445312 L 150.289062 14.445312 L 150.289062 32.351562 L 134.484375 32.351562 Z M 134.484375 14.445312 " fill-opacity="1" fill-rule="nonzero"/></g><g clip-path="url(#04063bfbf6)"><g clip-path="url(#424ffd79b5)"><path fill="#4b58ff" d="M 45.398438 35.976562 L 56.855469 35.976562 L 56.855469 52.40625 L 45.398438 52.40625 Z M 45.398438 35.976562 " fill-opacity="1" fill-rule="nonzero"/></g></g><g clip-path="url(#4a2f64c3ec)"><g clip-path="url(#8134651625)"><path fill="#4b58ff" d="M 144.785156 15.960938 L 157.382812 15.960938 L 157.382812 32.394531 L 144.785156 32.394531 Z M 144.785156 15.960938 " fill-opacity="1" fill-rule="nonzero"/></g></g><g fill="#1e1c1c" fill-opacity="1"><g transform="translate(67.769699, 56.664016)"><g><path d="M 18.6875 -6.96875 C 15.519531 -5.625 12.4375 -5.097656 9.4375 -5.390625 C 6.445312 -5.691406 3.773438 -6.734375 1.421875 -8.515625 C -0.929688 -10.304688 -2.765625 -12.75 -4.078125 -15.84375 C -5.390625 -18.945312 -5.851562 -21.957031 -5.46875 -24.875 C -5.082031 -27.800781 -3.945312 -30.441406 -2.0625 -32.796875 C -0.1875 -35.148438 2.359375 -37.007812 5.578125 -38.375 C 8.984375 -39.8125 12.238281 -40.296875 15.34375 -39.828125 C 18.457031 -39.359375 21.238281 -38.035156 23.6875 -35.859375 C 26.144531 -33.691406 28.046875 -30.757812 29.390625 -27.0625 L 5.515625 -16.96875 C 6.804688 -15.101562 8.378906 -13.921875 10.234375 -13.421875 C 12.085938 -12.929688 13.992188 -13.101562 15.953125 -13.9375 C 17.398438 -14.550781 18.597656 -15.382812 19.546875 -16.4375 C 20.503906 -17.488281 21.132812 -18.65625 21.4375 -19.9375 L 30.15625 -23.625 C 30.195312 -19.945312 29.210938 -16.632812 27.203125 -13.6875 C 25.191406 -10.75 22.351562 -8.507812 18.6875 -6.96875 Z M 3.28125 -22.4375 L 18.765625 -28.96875 C 17.503906 -30.570312 15.984375 -31.613281 14.203125 -32.09375 C 12.421875 -32.570312 10.523438 -32.382812 8.515625 -31.53125 C 6.628906 -30.738281 5.21875 -29.53125 4.28125 -27.90625 C 3.351562 -26.28125 3.019531 -24.457031 3.28125 -22.4375 Z M 3.28125 -22.4375 "/></g></g></g><g fill="#4b58ff" fill-opacity="1"><g transform="translate(16.103254, 67.614055)"><g><path d="M 4.75 -3.53125 L 4.125 -3.53125 C 4.070312 -3.757812 3.972656 -3.953125 3.828125 -4.109375 C 3.691406 -4.273438 3.519531 -4.398438 3.3125 -4.484375 C 3.113281 -4.566406 2.90625 -4.609375 2.6875 -4.609375 C 2.375 -4.609375 2.09375 -4.53125 1.84375 -4.375 C 1.59375 -4.21875 1.390625 -3.988281 1.234375 -3.6875 C 1.085938 -3.382812 1.015625 -3.007812 1.015625 -2.5625 C 1.015625 -2.113281 1.085938 -1.738281 1.234375 -1.4375 C 1.390625 -1.132812 1.59375 -0.90625 1.84375 -0.75 C 2.09375 -0.59375 2.375 -0.515625 2.6875 -0.515625 C 2.90625 -0.515625 3.113281 -0.554688 3.3125 -0.640625 C 3.519531 -0.722656 3.691406 -0.84375 3.828125 -1 C 3.972656 -1.164062 4.070312 -1.367188 4.125 -1.609375 L 4.75 -1.609375 C 4.6875 -1.253906 4.554688 -0.953125 4.359375 -0.703125 C 4.160156 -0.453125 3.914062 -0.257812 3.625 -0.125 C 3.34375 0 3.03125 0.0625 2.6875 0.0625 C 2.25 0.0625 1.859375 -0.0390625 1.515625 -0.25 C 1.171875 -0.46875 0.898438 -0.769531 0.703125 -1.15625 C 0.515625 -1.550781 0.421875 -2.019531 0.421875 -2.5625 C 0.421875 -3.101562 0.515625 -3.566406 0.703125 -3.953125 C 0.898438 -4.347656 1.171875 -4.648438 1.515625 -4.859375 C 1.859375 -5.078125 2.25 -5.1875 2.6875 -5.1875 C 3.03125 -5.1875 3.34375 -5.117188 3.625 -4.984375 C 3.914062 -4.859375 4.160156 -4.671875 4.359375 -4.421875 C 4.554688 -4.171875 4.6875 -3.875 4.75 -3.53125 Z M 4.75 -3.53125 "/></g></g></g><g fill="#4b58ff" fill-opacity="1"><g transform="translate(25.821382, 67.614055)"><g><path d="M 0.625 0 L 0.625 -5.125 L 2.359375 -5.125 C 2.753906 -5.125 3.078125 -5.054688 3.328125 -4.921875 C 3.585938 -4.785156 3.78125 -4.597656 3.90625 -4.359375 C 4.03125 -4.117188 4.09375 -3.847656 4.09375 -3.546875 C 4.09375 -3.210938 4.015625 -2.914062 3.859375 -2.65625 C 3.703125 -2.40625 3.460938 -2.222656 3.140625 -2.109375 L 4.296875 0 L 3.578125 0 L 2.5 -2 C 2.457031 -2 2.410156 -2 2.359375 -2 L 1.234375 -2 L 1.234375 0 Z M 1.234375 -2.5625 L 2.34375 -2.5625 C 2.75 -2.5625 3.039062 -2.648438 3.21875 -2.828125 C 3.394531 -3.003906 3.484375 -3.242188 3.484375 -3.546875 C 3.484375 -3.859375 3.394531 -4.109375 3.21875 -4.296875 C 3.039062 -4.484375 2.742188 -4.578125 2.328125 -4.578125 L 1.234375 -4.578125 Z M 1.234375 -2.5625 "/></g></g></g><g fill="#4b58ff" fill-opacity="1"><g transform="translate(34.918552, 67.614055)"><g><path d="M 0.625 0 L 0.625 -5.125 L 3.71875 -5.125 L 3.71875 -4.578125 L 1.234375 -4.578125 L 1.234375 -2.84375 L 3.546875 -2.84375 L 3.546875 -2.296875 L 1.234375 -2.296875 L 1.234375 -0.546875 L 3.75 -0.546875 L 3.75 0 Z M 0.625 0 "/></g></g></g><g fill="#4b58ff" fill-opacity="1"><g transform="translate(43.725273, 67.614055)"><g><path d="M 0.828125 0 L 0.1875 0 L 2.0625 -5.125 L 2.703125 -5.125 L 4.578125 0 L 3.9375 0 L 3.421875 -1.453125 L 1.34375 -1.453125 Z M 1.546875 -2 L 3.21875 -2 L 2.40625 -4.3125 L 2.359375 -4.3125 Z M 1.546875 -2 "/></g></g></g><g fill="#4b58ff" fill-opacity="1"><g transform="translate(53.082848, 67.614055)"><g><path d="M 0.34375 -4.578125 L 0.34375 -5.125 L 4.1875 -5.125 L 4.1875 -4.578125 L 2.578125 -4.578125 L 2.578125 0 L 1.953125 0 L 1.953125 -4.578125 Z M 0.34375 -4.578125 "/></g></g></g><g fill="#4b58ff" fill-opacity="1"><g transform="translate(62.200045, 67.614055)"><g><path d="M 1.234375 -5.125 L 1.234375 0 L 0.625 0 L 0.625 -5.125 Z M 1.234375 -5.125 "/></g></g></g><g fill="#4b58ff" fill-opacity="1"><g transform="translate(68.653144, 67.614055)"><g><path d="M 0.828125 -5.125 L 2.359375 -0.8125 L 2.40625 -0.8125 L 3.9375 -5.125 L 4.578125 -5.125 L 2.703125 0 L 2.0625 0 L 0.1875 -5.125 Z M 0.828125 -5.125 "/></g></g></g><g fill="#4b58ff" fill-opacity="1"><g transform="translate(78.010717, 67.614055)"><g><path d="M 0.625 0 L 0.625 -5.125 L 3.71875 -5.125 L 3.71875 -4.578125 L 1.234375 -4.578125 L 1.234375 -2.84375 L 3.546875 -2.84375 L 3.546875 -2.296875 L 1.234375 -2.296875 L 1.234375 -0.546875 L 3.75 -0.546875 L 3.75 0 Z M 0.625 0 "/></g></g></g><g fill="#4b58ff" fill-opacity="1"><g transform="translate(86.817436, 67.614055)"><g/></g></g><g fill="#4b58ff" fill-opacity="1"><g transform="translate(93.390713, 67.614055)"><g><path d="M 3.421875 -3.84375 C 3.390625 -4.09375 3.265625 -4.285156 3.046875 -4.421875 C 2.835938 -4.566406 2.578125 -4.640625 2.265625 -4.640625 C 1.929688 -4.640625 1.660156 -4.554688 1.453125 -4.390625 C 1.242188 -4.234375 1.140625 -4.035156 1.140625 -3.796875 C 1.140625 -3.609375 1.195312 -3.457031 1.3125 -3.34375 C 1.425781 -3.238281 1.554688 -3.15625 1.703125 -3.09375 C 1.859375 -3.03125 2 -2.976562 2.125 -2.9375 L 2.65625 -2.796875 C 2.789062 -2.765625 2.9375 -2.71875 3.09375 -2.65625 C 3.257812 -2.59375 3.414062 -2.507812 3.5625 -2.40625 C 3.71875 -2.300781 3.84375 -2.164062 3.9375 -2 C 4.039062 -1.832031 4.09375 -1.628906 4.09375 -1.390625 C 4.09375 -1.109375 4.019531 -0.859375 3.875 -0.640625 C 3.726562 -0.421875 3.515625 -0.242188 3.234375 -0.109375 C 2.960938 0.0234375 2.632812 0.09375 2.25 0.09375 C 1.695312 0.09375 1.257812 -0.0351562 0.9375 -0.296875 C 0.613281 -0.554688 0.4375 -0.898438 0.40625 -1.328125 L 1.046875 -1.328125 C 1.054688 -1.128906 1.117188 -0.96875 1.234375 -0.84375 C 1.347656 -0.71875 1.492188 -0.625 1.671875 -0.5625 C 1.847656 -0.5 2.039062 -0.46875 2.25 -0.46875 C 2.476562 -0.46875 2.6875 -0.503906 2.875 -0.578125 C 3.0625 -0.660156 3.210938 -0.769531 3.328125 -0.90625 C 3.441406 -1.050781 3.5 -1.21875 3.5 -1.40625 C 3.5 -1.570312 3.445312 -1.707031 3.34375 -1.8125 C 3.25 -1.925781 3.125 -2.015625 2.96875 -2.078125 C 2.820312 -2.140625 2.65625 -2.195312 2.46875 -2.25 L 1.84375 -2.4375 C 1.4375 -2.550781 1.117188 -2.710938 0.890625 -2.921875 C 0.660156 -3.140625 0.546875 -3.421875 0.546875 -3.765625 C 0.546875 -4.046875 0.625 -4.296875 0.78125 -4.515625 C 0.9375 -4.734375 1.144531 -4.898438 1.40625 -5.015625 C 1.664062 -5.128906 1.960938 -5.1875 2.296875 -5.1875 C 2.617188 -5.1875 2.910156 -5.128906 3.171875 -5.015625 C 3.429688 -4.898438 3.632812 -4.738281 3.78125 -4.53125 C 3.9375 -4.332031 4.019531 -4.101562 4.03125 -3.84375 Z M 3.421875 -3.84375 "/></g></g></g><g fill="#4b58ff" fill-opacity="1"><g transform="translate(102.477867, 67.614055)"><g><path d="M 0.34375 -4.578125 L 0.34375 -5.125 L 4.1875 -5.125 L 4.1875 -4.578125 L 2.578125 -4.578125 L 2.578125 0 L 1.953125 0 L 1.953125 -4.578125 Z M 0.34375 -4.578125 "/></g></g></g><g fill="#4b58ff" fill-opacity="1"><g transform="translate(111.595064, 67.614055)"><g><path d="M 3.984375 -5.125 L 4.609375 -5.125 L 4.609375 -1.734375 C 4.609375 -1.347656 4.515625 -1.019531 4.328125 -0.75 C 4.148438 -0.476562 3.910156 -0.269531 3.609375 -0.125 C 3.304688 0.0195312 2.972656 0.09375 2.609375 0.09375 C 2.253906 0.09375 1.925781 0.0195312 1.625 -0.125 C 1.320312 -0.269531 1.078125 -0.476562 0.890625 -0.75 C 0.710938 -1.019531 0.625 -1.347656 0.625 -1.734375 L 0.625 -5.125 L 1.234375 -5.125 L 1.234375 -1.734375 C 1.234375 -1.460938 1.296875 -1.234375 1.421875 -1.046875 C 1.554688 -0.867188 1.726562 -0.726562 1.9375 -0.625 C 2.144531 -0.53125 2.367188 -0.484375 2.609375 -0.484375 C 2.859375 -0.484375 3.085938 -0.53125 3.296875 -0.625 C 3.503906 -0.726562 3.671875 -0.867188 3.796875 -1.046875 C 3.921875 -1.234375 3.984375 -1.460938 3.984375 -1.734375 Z M 3.984375 -5.125 "/></g></g></g><g fill="#4b58ff" fill-opacity="1"><g transform="translate(121.413348, 67.614055)"><g><path d="M 2.203125 0 L 0.625 0 L 0.625 -5.125 L 2.265625 -5.125 C 2.765625 -5.125 3.191406 -5.019531 3.546875 -4.8125 C 3.898438 -4.613281 4.171875 -4.320312 4.359375 -3.9375 C 4.546875 -3.5625 4.640625 -3.109375 4.640625 -2.578125 C 4.640625 -2.035156 4.546875 -1.570312 4.359375 -1.1875 C 4.171875 -0.8125 3.894531 -0.519531 3.53125 -0.3125 C 3.164062 -0.101562 2.722656 0 2.203125 0 Z M 1.234375 -0.546875 L 2.15625 -0.546875 C 2.789062 -0.546875 3.265625 -0.726562 3.578125 -1.09375 C 3.890625 -1.457031 4.046875 -1.953125 4.046875 -2.578125 C 4.046875 -3.191406 3.894531 -3.675781 3.59375 -4.03125 C 3.289062 -4.394531 2.835938 -4.578125 2.234375 -4.578125 L 1.234375 -4.578125 Z M 1.234375 -0.546875 "/></g></g></g><g fill="#4b58ff" fill-opacity="1"><g transform="translate(131.071384, 67.614055)"><g><path d="M 1.234375 -5.125 L 1.234375 0 L 0.625 0 L 0.625 -5.125 Z M 1.234375 -5.125 "/></g></g></g><g fill="#4b58ff" fill-opacity="1"><g transform="translate(137.524483, 67.614055)"><g><path d="M 4.9375 -2.5625 C 4.9375 -2.019531 4.835938 -1.550781 4.640625 -1.15625 C 4.453125 -0.769531 4.1875 -0.46875 3.84375 -0.25 C 3.507812 -0.0390625 3.125 0.0625 2.6875 0.0625 C 2.25 0.0625 1.859375 -0.0390625 1.515625 -0.25 C 1.171875 -0.46875 0.898438 -0.769531 0.703125 -1.15625 C 0.515625 -1.550781 0.421875 -2.019531 0.421875 -2.5625 C 0.421875 -3.101562 0.515625 -3.566406 0.703125 -3.953125 C 0.898438 -4.347656 1.171875 -4.648438 1.515625 -4.859375 C 1.859375 -5.078125 2.25 -5.1875 2.6875 -5.1875 C 3.125 -5.1875 3.507812 -5.078125 3.84375 -4.859375 C 4.1875 -4.648438 4.453125 -4.347656 4.640625 -3.953125 C 4.835938 -3.566406 4.9375 -3.101562 4.9375 -2.5625 Z M 4.34375 -2.5625 C 4.34375 -3.007812 4.269531 -3.382812 4.125 -3.6875 C 3.976562 -3.988281 3.773438 -4.21875 3.515625 -4.375 C 3.265625 -4.53125 2.988281 -4.609375 2.6875 -4.609375 C 2.375 -4.609375 2.09375 -4.53125 1.84375 -4.375 C 1.59375 -4.21875 1.390625 -3.988281 1.234375 -3.6875 C 1.085938 -3.382812 1.015625 -3.007812 1.015625 -2.5625 C 1.015625 -2.113281 1.085938 -1.738281 1.234375 -1.4375 C 1.390625 -1.132812 1.59375 -0.90625 1.84375 -0.75 C 2.09375 -0.59375 2.375 -0.515625 2.6875 -0.515625 C 2.988281 -0.515625 3.265625 -0.59375 3.515625 -0.75 C 3.773438 -0.90625 3.976562 -1.132812 4.125 -1.4375 C 4.269531 -1.738281 4.34375 -2.113281 4.34375 -2.5625 Z M 4.34375 -2.5625 "/></g></g></g></svg>